<?xml version="1.0" encoding="UTF-8"?>
<svg version="1.1" xmlns="http://www.w3.org/2000/svg" width="736" height="736">
<path d="M0 0 C242.88 0 485.76 0 736 0 C736 242.88 736 485.76 736 736 C493.12 736 250.24 736 0 736 C0 493.12 0 250.24 0 0 Z " fill="#000000" transform="translate(0,0)"/>
<path d="M0 0 C1.59600385 -0.02687868 3.19182545 -0.06809282 4.78710938 -0.12304688 C19.80363898 -0.63042402 19.80363898 -0.63042402 24.94384766 3.83496094 C26.00060408 5.01087729 27.02590364 6.21662373 28.00244141 7.45996094 C29.27087891 8.69746094 29.27087891 8.69746094 30.56494141 9.95996094 C31.36931641 10.78496094 32.17369141 11.60996094 33.00244141 12.45996094 C34.16775542 13.62797869 35.33451959 14.79455078 36.50244141 15.95996094 C37.39576172 16.85521484 37.39576172 16.85521484 38.30712891 17.76855469 C39.73785557 19.19598475 41.18124923 20.6107019 42.62744141 22.02246094 C45.00244141 24.45996094 45.00244141 24.45996094 47.31494141 27.33496094 C49.17915257 29.61201519 51.13601844 31.49472878 53.38916016 33.38574219 C58.78625895 38.05736162 63.8153488 43.08680679 68.85986328 48.13208008 C70.52180329 49.79179692 72.19163751 51.44330551 73.86181641 53.09472656 C74.91959498 54.14957707 75.97690466 55.20489804 77.03369141 56.26074219 C77.78350281 56.99977531 77.78350281 56.99977531 78.54846191 57.7537384 C82.00244141 61.23108971 82.00244141 61.23108971 82.00244141 63.45996094 C82.66244141 63.45996094 83.32244141 63.45996094 84.00244141 63.45996094 C84.00244141 42.99996094 84.00244141 22.53996094 84.00244141 1.45996094 C96.90629361 -0.15302059 109.9981686 0.45996094 123.00244141 0.45996094 C123.00244141 51.93996094 123.00244141 103.41996094 123.00244141 156.45996094 C122.34244141 156.45996094 121.68244141 156.45996094 121.00244141 156.45996094 C119.74746704 155.1849823 119.74746704 155.1849823 118.21582031 153.30444336 C112.70616596 146.83226971 106.60706096 140.94135157 100.58837891 134.94824219 C99.28734722 133.64907986 97.98653931 132.3496934 96.6859436 131.0500946 C93.28053534 127.64848084 89.87213661 124.24987932 86.46307373 120.85192871 C82.99782018 117.39691749 79.53540232 113.93906709 76.07275391 110.48144531 C70.48074066 104.89818968 64.88703975 99.31663187 59.29100037 93.7374115 C57.86123769 92.31183834 56.43183109 90.88590809 55.00244141 89.45996094 C54.09434723 88.55743088 53.18625305 87.65490082 52.25064087 86.72502136 C50.22588984 84.68508518 48.35377923 82.59374142 46.50244141 80.39746094 C44.56908122 78.15992987 42.81985841 76.31389454 40.50244141 74.45996094 C38.37923719 72.76139757 36.94272812 71.27558778 35.22290039 69.21337891 C30.10587048 63.30730953 24.51241976 57.87568814 18.96537971 52.37829971 C16.94153292 50.3719997 14.92138495 48.36204128 12.90220642 46.3510437 C7.16669956 40.63987187 1.42540024 34.93454805 -4.32006836 29.23339844 C-7.84658979 25.73357471 -11.36829334 22.22896346 -14.88702583 18.72130966 C-16.22764164 17.38691467 -17.57015345 16.05442179 -18.91456413 14.72385025 C-20.78390951 12.87360499 -22.64712075 11.01738838 -24.5090332 9.15966797 C-25.06843094 8.60903183 -25.62782867 8.05839569 -26.20417786 7.49107361 C-29.99755859 3.68786035 -29.99755859 3.68786035 -29.99755859 1.45996094 C-20.00142902 0.62779173 -10.02885159 0.12860161 0 0 Z " fill="#FCFCFC" transform="translate(321.99755859375,289.5400390625)"/>
<path d="M0 0 C4.45996722 3.82282905 8.87590645 7.64283461 13.1875 11.625 C13.74139404 12.13571045 14.29528809 12.6464209 14.8659668 13.17260742 C19.30040847 17.2898087 23.57971454 21.54499994 27.83081055 25.85009766 C30.47057584 28.51134584 33.1463093 31.06994998 36 33.5 C39.66988978 36.62562646 43.08730226 39.97426265 46.5 43.375 C47.04140625 43.91189453 47.5828125 44.44878906 48.140625 45.00195312 C52 48.87624839 52 48.87624839 52 50 C34.84 50 17.68 50 0 50 C0 33.5 0 17 0 0 Z " fill="#FBFBFB" transform="translate(315,370)"/>
<path d="M0 0 C2 2 2 2 2.20254517 4.02481079 C2.18033905 4.85531952 2.15813293 5.68582825 2.13525391 6.54150391 C2.10499619 7.95274033 2.10499619 7.95274033 2.0741272 9.39248657 C2.04193085 10.41023163 2.0097345 11.42797668 1.9765625 12.4765625 C1.95153656 13.51694672 1.92651062 14.55733093 1.90072632 15.62924194 C1.81836806 18.96148502 1.7218394 22.29314932 1.625 25.625 C1.56677665 27.88018447 1.50947304 30.13539289 1.453125 32.390625 C1.31276587 37.92740569 1.16076201 43.46377621 1 49 C7.51475058 48.90787129 14.0291234 48.80058493 20.54345703 48.68261719 C22.7608469 48.64426866 24.97830024 48.60942629 27.19580078 48.578125 C30.37816089 48.53260174 33.56008182 48.47458681 36.7421875 48.4140625 C37.73805878 48.40251129 38.73393005 48.39096008 39.75997925 48.37905884 C40.68078278 48.35918915 41.6015863 48.33931946 42.55029297 48.31884766 C43.3630368 48.30552399 44.17578064 48.29220032 45.01315308 48.2784729 C47.23040058 48.17100919 47.23040058 48.17100919 49 46 C49.99 47.32 50.98 48.64 52 50 C34.84 50 17.68 50 0 50 C0 33.5 0 17 0 0 Z " fill="#EEEEEE" transform="translate(315,370)"/>
</svg>
